<svg width="100%" height="100%" fill="black" viewBox="0 0 318 242" version="1.1" xmlns="http://www.w3.org/2000/svg">
    <g transform="matrix(1,0,0,1,-59.9247,-60.6436)">
        <g transform="matrix(0.929874,0,0,0.929874,25.1418,19.7938)">
            <path d="M119.493,285.701C140.329,252.646 173.813,199.524 197.062,162.642C199.49,158.789 203.726,156.453 208.28,156.453C212.834,156.453 217.07,158.789 219.498,162.642C242.748,199.528 276.235,252.653 297.096,285.697C304.873,298.035 318.883,305.024 333.43,303.815C347.977,302.606 360.641,293.4 366.279,279.936C366.291,279.907 366.303,279.877 366.315,279.848C374.586,259.795 379.154,237.829 379.154,214.804C379.154,120.496 302.588,43.93 208.28,43.93C113.972,43.93 37.406,120.496 37.406,214.804C37.406,237.82 41.971,259.778 50.209,279.836C50.225,279.873 50.24,279.909 50.255,279.946C55.897,293.42 68.57,302.633 83.127,303.843C97.684,305.053 111.705,298.058 119.493,285.701L119.493,285.701ZM89.774,266.968C89.774,266.969 89.774,266.969 89.774,266.969C88.973,268.239 87.533,268.957 86.037,268.833C84.567,268.711 83.283,267.794 82.689,266.448C76.146,250.493 72.536,233.067 72.536,214.804C72.536,139.885 133.361,79.061 208.28,79.061C283.199,79.061 344.023,139.885 344.023,214.804C344.023,233.058 340.417,250.476 333.869,266.379C333.281,267.755 331.995,268.683 330.52,268.806C329.034,268.929 327.603,268.215 326.808,266.954C326.806,266.951 326.804,266.947 326.802,266.944C305.945,233.905 272.463,180.788 249.217,143.909C240.355,129.85 224.899,121.322 208.28,121.322C191.661,121.322 176.205,129.85 167.343,143.909C144.094,180.792 110.61,233.913 89.774,266.968Z"/>
        </g>
    </g>
</svg>
